<mxfile host="app.diagrams.net" modified="2024-04-03T10:26:06.456Z" agent="Mozilla/5.0 (Windows NT 10.0; Win64; x64) AppleWebKit/537.36 (KHTML, like Gecko) Chrome/123.0.0.0 Safari/537.36" etag="6eJWDV5GJSmiE-gZwYvN" version="24.2.1" type="github" pages="2">
  <diagram name="Page-1" id="PU_BHvlNlyNk86ijiy7d">
    <mxGraphModel dx="1674" dy="788" grid="1" gridSize="10" guides="1" tooltips="1" connect="1" arrows="1" fold="1" page="1" pageScale="1" pageWidth="827" pageHeight="1169" math="0" shadow="0">
      <root>
        <mxCell id="0" />
        <mxCell id="1" parent="0" />
        <mxCell id="CVkDq7zGWnvEZfcM5Xtb-1" value="Customer" style="shape=umlActor;verticalLabelPosition=bottom;verticalAlign=top;html=1;" parent="1" vertex="1">
          <mxGeometry x="50" y="130" width="30" height="60" as="geometry" />
        </mxCell>
        <mxCell id="CVkDq7zGWnvEZfcM5Xtb-2" value="Admin" style="shape=umlActor;verticalLabelPosition=bottom;verticalAlign=top;html=1;" parent="1" vertex="1">
          <mxGeometry x="50" y="365" width="30" height="60" as="geometry" />
        </mxCell>
        <mxCell id="CVkDq7zGWnvEZfcM5Xtb-4" value="Chef&lt;div&gt;&lt;br&gt;&lt;/div&gt;" style="shape=umlActor;verticalLabelPosition=bottom;verticalAlign=top;html=1;" parent="1" vertex="1">
          <mxGeometry x="760" y="555" width="30" height="60" as="geometry" />
        </mxCell>
        <mxCell id="CVkDq7zGWnvEZfcM5Xtb-8" value="Delivery&lt;div&gt;&lt;br&gt;&lt;/div&gt;" style="shape=umlActor;verticalLabelPosition=bottom;verticalAlign=top;html=1;" parent="1" vertex="1">
          <mxGeometry x="760" y="365" width="30" height="60" as="geometry" />
        </mxCell>
        <mxCell id="CVkDq7zGWnvEZfcM5Xtb-15" value="view menu" style="ellipse;whiteSpace=wrap;html=1;" parent="1" vertex="1">
          <mxGeometry x="180" y="40" width="100" height="40" as="geometry" />
        </mxCell>
        <mxCell id="CVkDq7zGWnvEZfcM5Xtb-21" value="Recieve order" style="ellipse;whiteSpace=wrap;html=1;" parent="1" vertex="1">
          <mxGeometry x="410" y="470" width="100" height="40" as="geometry" />
        </mxCell>
        <mxCell id="CVkDq7zGWnvEZfcM5Xtb-22" value="Log in" style="ellipse;whiteSpace=wrap;html=1;" parent="1" vertex="1">
          <mxGeometry x="410" y="240" width="100" height="40" as="geometry" />
        </mxCell>
        <mxCell id="CVkDq7zGWnvEZfcM5Xtb-23" value="view order tracking" style="ellipse;whiteSpace=wrap;html=1;" parent="1" vertex="1">
          <mxGeometry x="180" y="240" width="100" height="40" as="geometry" />
        </mxCell>
        <mxCell id="CVkDq7zGWnvEZfcM5Xtb-24" value="view total bill" style="ellipse;whiteSpace=wrap;html=1;" parent="1" vertex="1">
          <mxGeometry x="180" y="105" width="100" height="40" as="geometry" />
        </mxCell>
        <mxCell id="CVkDq7zGWnvEZfcM5Xtb-25" value="order pizza" style="ellipse;whiteSpace=wrap;html=1;" parent="1" vertex="1">
          <mxGeometry x="180" y="170" width="100" height="40" as="geometry" />
        </mxCell>
        <mxCell id="CVkDq7zGWnvEZfcM5Xtb-31" value="" style="edgeStyle=none;html=1;endArrow=none;verticalAlign=bottom;rounded=0;entryX=0;entryY=0.5;entryDx=0;entryDy=0;exitX=0.5;exitY=0.5;exitDx=0;exitDy=0;exitPerimeter=0;" parent="1" source="CVkDq7zGWnvEZfcM5Xtb-1" target="CVkDq7zGWnvEZfcM5Xtb-15" edge="1">
          <mxGeometry width="160" relative="1" as="geometry">
            <mxPoint x="90" y="110" as="sourcePoint" />
            <mxPoint x="250" y="100" as="targetPoint" />
          </mxGeometry>
        </mxCell>
        <mxCell id="CVkDq7zGWnvEZfcM5Xtb-32" value="" style="edgeStyle=none;html=1;endArrow=none;verticalAlign=bottom;rounded=0;exitX=0.5;exitY=0.5;exitDx=0;exitDy=0;exitPerimeter=0;" parent="1" source="CVkDq7zGWnvEZfcM5Xtb-1" target="CVkDq7zGWnvEZfcM5Xtb-24" edge="1">
          <mxGeometry width="160" relative="1" as="geometry">
            <mxPoint x="90" y="100" as="sourcePoint" />
            <mxPoint x="170" y="70" as="targetPoint" />
          </mxGeometry>
        </mxCell>
        <mxCell id="CVkDq7zGWnvEZfcM5Xtb-33" value="" style="edgeStyle=none;html=1;endArrow=none;verticalAlign=bottom;rounded=0;entryX=0;entryY=0.5;entryDx=0;entryDy=0;exitX=0.5;exitY=0.5;exitDx=0;exitDy=0;exitPerimeter=0;" parent="1" source="CVkDq7zGWnvEZfcM5Xtb-1" target="CVkDq7zGWnvEZfcM5Xtb-25" edge="1">
          <mxGeometry width="160" relative="1" as="geometry">
            <mxPoint x="70" y="195" as="sourcePoint" />
            <mxPoint x="150" y="165" as="targetPoint" />
          </mxGeometry>
        </mxCell>
        <mxCell id="CVkDq7zGWnvEZfcM5Xtb-34" value="" style="edgeStyle=none;html=1;endArrow=none;verticalAlign=bottom;rounded=0;exitX=0.5;exitY=0.5;exitDx=0;exitDy=0;exitPerimeter=0;" parent="1" source="CVkDq7zGWnvEZfcM5Xtb-1" target="CVkDq7zGWnvEZfcM5Xtb-23" edge="1">
          <mxGeometry width="160" relative="1" as="geometry">
            <mxPoint x="90" y="210" as="sourcePoint" />
            <mxPoint x="170" y="180" as="targetPoint" />
          </mxGeometry>
        </mxCell>
        <mxCell id="CVkDq7zGWnvEZfcM5Xtb-38" value="View cutomer order" style="ellipse;whiteSpace=wrap;html=1;" parent="1" vertex="1">
          <mxGeometry x="590" y="610" width="100" height="40" as="geometry" />
        </mxCell>
        <mxCell id="CVkDq7zGWnvEZfcM5Xtb-39" value="Prepare pizza" style="ellipse;whiteSpace=wrap;html=1;" parent="1" vertex="1">
          <mxGeometry x="590" y="530" width="100" height="40" as="geometry" />
        </mxCell>
        <mxCell id="CVkDq7zGWnvEZfcM5Xtb-40" value="Manage payment" style="ellipse;whiteSpace=wrap;html=1;" parent="1" vertex="1">
          <mxGeometry x="180" y="480" width="100" height="40" as="geometry" />
        </mxCell>
        <mxCell id="CVkDq7zGWnvEZfcM5Xtb-41" value="manage order status" style="ellipse;whiteSpace=wrap;html=1;" parent="1" vertex="1">
          <mxGeometry x="180" y="400" width="100" height="40" as="geometry" />
        </mxCell>
        <mxCell id="CVkDq7zGWnvEZfcM5Xtb-42" value="Add/delete menu position" style="ellipse;whiteSpace=wrap;html=1;" parent="1" vertex="1">
          <mxGeometry x="180" y="335" width="100" height="40" as="geometry" />
        </mxCell>
        <mxCell id="CVkDq7zGWnvEZfcM5Xtb-43" value="" style="edgeStyle=none;html=1;endArrow=none;verticalAlign=bottom;rounded=0;exitX=0.5;exitY=0.5;exitDx=0;exitDy=0;exitPerimeter=0;entryX=0;entryY=0;entryDx=0;entryDy=0;" parent="1" source="CVkDq7zGWnvEZfcM5Xtb-2" target="CVkDq7zGWnvEZfcM5Xtb-42" edge="1">
          <mxGeometry width="160" relative="1" as="geometry">
            <mxPoint x="80.99000000000001" y="305.98" as="sourcePoint" />
            <mxPoint x="200" y="360" as="targetPoint" />
          </mxGeometry>
        </mxCell>
        <mxCell id="CVkDq7zGWnvEZfcM5Xtb-44" value="" style="edgeStyle=none;html=1;endArrow=none;verticalAlign=bottom;rounded=0;exitX=0.5;exitY=0.5;exitDx=0;exitDy=0;exitPerimeter=0;entryX=0.09;entryY=0.2;entryDx=0;entryDy=0;entryPerimeter=0;" parent="1" source="CVkDq7zGWnvEZfcM5Xtb-2" target="CVkDq7zGWnvEZfcM5Xtb-41" edge="1">
          <mxGeometry width="160" relative="1" as="geometry">
            <mxPoint x="60.000000000000014" y="370" as="sourcePoint" />
            <mxPoint x="179.01" y="424.02" as="targetPoint" />
          </mxGeometry>
        </mxCell>
        <mxCell id="CVkDq7zGWnvEZfcM5Xtb-45" value="" style="edgeStyle=none;html=1;endArrow=none;verticalAlign=bottom;rounded=0;exitX=0.5;exitY=0.5;exitDx=0;exitDy=0;exitPerimeter=0;entryX=0.39;entryY=0.05;entryDx=0;entryDy=0;entryPerimeter=0;" parent="1" source="CVkDq7zGWnvEZfcM5Xtb-2" target="CVkDq7zGWnvEZfcM5Xtb-40" edge="1">
          <mxGeometry width="160" relative="1" as="geometry">
            <mxPoint x="60.000000000000014" y="420" as="sourcePoint" />
            <mxPoint x="179.01" y="474.02" as="targetPoint" />
          </mxGeometry>
        </mxCell>
        <mxCell id="CVkDq7zGWnvEZfcM5Xtb-48" value="&amp;lt;&amp;lt;include&amp;gt;&amp;gt;" style="edgeStyle=none;html=1;endArrow=open;verticalAlign=bottom;dashed=1;labelBackgroundColor=none;rounded=0;entryX=0.5;entryY=1;entryDx=0;entryDy=0;exitX=1;exitY=0.5;exitDx=0;exitDy=0;" parent="1" source="CVkDq7zGWnvEZfcM5Xtb-41" target="CVkDq7zGWnvEZfcM5Xtb-22" edge="1">
          <mxGeometry width="160" relative="1" as="geometry">
            <mxPoint x="290" y="434.5" as="sourcePoint" />
            <mxPoint x="450" y="434.5" as="targetPoint" />
          </mxGeometry>
        </mxCell>
        <mxCell id="CVkDq7zGWnvEZfcM5Xtb-50" value="&amp;lt;&amp;lt;include&amp;gt;&amp;gt;" style="edgeStyle=none;html=1;endArrow=open;verticalAlign=bottom;dashed=1;labelBackgroundColor=none;rounded=0;exitX=1;exitY=0.5;exitDx=0;exitDy=0;entryX=0.5;entryY=1;entryDx=0;entryDy=0;" parent="1" source="CVkDq7zGWnvEZfcM5Xtb-40" target="CVkDq7zGWnvEZfcM5Xtb-22" edge="1">
          <mxGeometry width="160" relative="1" as="geometry">
            <mxPoint x="360" y="489.5" as="sourcePoint" />
            <mxPoint x="520" y="489.5" as="targetPoint" />
          </mxGeometry>
        </mxCell>
        <mxCell id="CVkDq7zGWnvEZfcM5Xtb-51" value="&amp;lt;&amp;lt;include&amp;gt;&amp;gt;" style="edgeStyle=none;html=1;endArrow=open;verticalAlign=bottom;dashed=1;labelBackgroundColor=none;rounded=0;exitX=0.01;exitY=0.325;exitDx=0;exitDy=0;exitPerimeter=0;entryX=1;entryY=0.5;entryDx=0;entryDy=0;" parent="1" source="CVkDq7zGWnvEZfcM5Xtb-39" target="CVkDq7zGWnvEZfcM5Xtb-21" edge="1">
          <mxGeometry x="-0.0117" width="160" relative="1" as="geometry">
            <mxPoint x="400" y="620" as="sourcePoint" />
            <mxPoint x="460" y="540" as="targetPoint" />
            <mxPoint as="offset" />
          </mxGeometry>
        </mxCell>
        <mxCell id="CVkDq7zGWnvEZfcM5Xtb-52" value="&amp;lt;&amp;lt;include&amp;gt;&amp;gt;" style="edgeStyle=none;html=1;endArrow=open;verticalAlign=bottom;dashed=1;labelBackgroundColor=none;rounded=0;entryX=0.36;entryY=1.025;entryDx=0;entryDy=0;entryPerimeter=0;exitX=1;exitY=0.5;exitDx=0;exitDy=0;" parent="1" source="CVkDq7zGWnvEZfcM5Xtb-42" target="CVkDq7zGWnvEZfcM5Xtb-22" edge="1">
          <mxGeometry x="0.0027" width="160" relative="1" as="geometry">
            <mxPoint x="260" y="370" as="sourcePoint" />
            <mxPoint x="380" y="370" as="targetPoint" />
            <mxPoint as="offset" />
          </mxGeometry>
        </mxCell>
        <mxCell id="CVkDq7zGWnvEZfcM5Xtb-54" value="&amp;lt;&amp;lt;include&amp;gt;&amp;gt;" style="edgeStyle=none;html=1;endArrow=open;verticalAlign=bottom;dashed=1;labelBackgroundColor=none;rounded=0;exitX=0.01;exitY=0.325;exitDx=0;exitDy=0;entryX=1;entryY=1;entryDx=0;entryDy=0;exitPerimeter=0;" parent="1" source="CVkDq7zGWnvEZfcM5Xtb-38" target="CVkDq7zGWnvEZfcM5Xtb-21" edge="1">
          <mxGeometry x="-0.1451" width="160" relative="1" as="geometry">
            <mxPoint x="415.35533905932743" y="664.1421356237311" as="sourcePoint" />
            <mxPoint x="490" y="690" as="targetPoint" />
            <Array as="points" />
            <mxPoint as="offset" />
          </mxGeometry>
        </mxCell>
        <mxCell id="CVkDq7zGWnvEZfcM5Xtb-55" value="" style="edgeStyle=none;html=1;endArrow=none;verticalAlign=bottom;rounded=0;entryX=0.5;entryY=0.5;entryDx=0;entryDy=0;exitX=0.93;exitY=0.875;exitDx=0;exitDy=0;exitPerimeter=0;entryPerimeter=0;" parent="1" source="CVkDq7zGWnvEZfcM5Xtb-39" target="CVkDq7zGWnvEZfcM5Xtb-4" edge="1">
          <mxGeometry width="160" relative="1" as="geometry">
            <mxPoint x="550" y="750" as="sourcePoint" />
            <mxPoint x="685" y="660" as="targetPoint" />
          </mxGeometry>
        </mxCell>
        <mxCell id="CVkDq7zGWnvEZfcM5Xtb-56" value="" style="edgeStyle=none;html=1;endArrow=none;verticalAlign=bottom;rounded=0;entryX=0.5;entryY=0.5;entryDx=0;entryDy=0;exitX=1;exitY=0.5;exitDx=0;exitDy=0;entryPerimeter=0;" parent="1" source="CVkDq7zGWnvEZfcM5Xtb-38" target="CVkDq7zGWnvEZfcM5Xtb-4" edge="1">
          <mxGeometry width="160" relative="1" as="geometry">
            <mxPoint x="560" y="760" as="sourcePoint" />
            <mxPoint x="695" y="670" as="targetPoint" />
          </mxGeometry>
        </mxCell>
        <mxCell id="CVkDq7zGWnvEZfcM5Xtb-57" value="Deliver pizza&lt;span style=&quot;color: rgba(0, 0, 0, 0); font-family: monospace; font-size: 0px; text-align: start; text-wrap: nowrap;&quot;&gt;%3CmxGraphModel%3E%3Croot%3E%3CmxCell%20id%3D%220%22%2F%3E%3CmxCell%20id%3D%221%22%20parent%3D%220%22%2F%3E%3CmxCell%20id%3D%222%22%20value%3D%22Manage%20payment%22%20style%3D%22ellipse%3BwhiteSpace%3Dwrap%3Bhtml%3D1%3B%22%20vertex%3D%221%22%20parent%3D%221%22%3E%3CmxGeometry%20x%3D%22180%22%20y%3D%22500%22%20width%3D%22100%22%20height%3D%2240%22%20as%3D%22geometry%22%2F%3E%3C%2FmxCell%3E%3C%2Froot%3E%3C%2FmxGraphModel%3E&lt;/span&gt;" style="ellipse;whiteSpace=wrap;html=1;" parent="1" vertex="1">
          <mxGeometry x="590" y="375" width="100" height="40" as="geometry" />
        </mxCell>
        <mxCell id="CVkDq7zGWnvEZfcM5Xtb-59" value="&amp;lt;&amp;lt;include&amp;gt;&amp;gt;" style="edgeStyle=none;html=1;endArrow=open;verticalAlign=bottom;dashed=1;labelBackgroundColor=none;rounded=0;entryX=1;entryY=0;entryDx=0;entryDy=0;exitX=0.08;exitY=0.725;exitDx=0;exitDy=0;exitPerimeter=0;" parent="1" source="CVkDq7zGWnvEZfcM5Xtb-57" target="CVkDq7zGWnvEZfcM5Xtb-21" edge="1">
          <mxGeometry x="0.1283" y="7" width="160" relative="1" as="geometry">
            <mxPoint x="330" y="580" as="sourcePoint" />
            <mxPoint x="490" y="580" as="targetPoint" />
            <mxPoint as="offset" />
          </mxGeometry>
        </mxCell>
        <mxCell id="CVkDq7zGWnvEZfcM5Xtb-60" value="" style="edgeStyle=none;html=1;endArrow=none;verticalAlign=bottom;rounded=0;exitX=0.5;exitY=0.5;exitDx=0;exitDy=0;exitPerimeter=0;entryX=1;entryY=0.5;entryDx=0;entryDy=0;" parent="1" source="CVkDq7zGWnvEZfcM5Xtb-8" target="CVkDq7zGWnvEZfcM5Xtb-57" edge="1">
          <mxGeometry width="160" relative="1" as="geometry">
            <mxPoint x="50" y="600" as="sourcePoint" />
            <mxPoint x="640" y="380" as="targetPoint" />
          </mxGeometry>
        </mxCell>
        <object placeholders="1" c4Name="Pizza market" c4Type="SystemScopeBoundary" c4Application="Pizza market" label="&lt;font style=&quot;font-size: 16px&quot;&gt;&lt;b&gt;&lt;div style=&quot;text-align: left&quot;&gt;%c4Name%&lt;/div&gt;&lt;/b&gt;&lt;/font&gt;&lt;div style=&quot;text-align: left&quot;&gt;[%c4Application%]&lt;/div&gt;" id="CVkDq7zGWnvEZfcM5Xtb-61">
          <mxCell style="rounded=1;fontSize=11;whiteSpace=wrap;html=1;dashed=1;arcSize=20;fillColor=none;strokeColor=#666666;fontColor=#333333;labelBackgroundColor=none;align=left;verticalAlign=bottom;labelBorderColor=none;spacingTop=0;spacing=10;dashPattern=8 4;metaEdit=1;rotatable=0;perimeter=rectanglePerimeter;noLabel=0;labelPadding=0;allowArrows=0;connectable=0;expand=0;recursiveResize=0;editable=1;pointerEvents=0;absoluteArcSize=1;points=[[0.25,0,0],[0.5,0,0],[0.75,0,0],[1,0.25,0],[1,0.5,0],[1,0.75,0],[0.75,1,0],[0.5,1,0],[0.25,1,0],[0,0.75,0],[0,0.5,0],[0,0.25,0]];" parent="1" vertex="1">
            <mxGeometry x="140" y="30" width="570" height="730" as="geometry" />
          </mxCell>
        </object>
        <mxCell id="CVkDq7zGWnvEZfcM5Xtb-62" value="&amp;lt;&amp;lt;include&amp;gt;&amp;gt;" style="edgeStyle=none;html=1;endArrow=open;verticalAlign=bottom;dashed=1;labelBackgroundColor=none;rounded=0;entryX=0;entryY=0.5;entryDx=0;entryDy=0;exitX=1;exitY=0.5;exitDx=0;exitDy=0;" parent="1" source="CVkDq7zGWnvEZfcM5Xtb-23" target="CVkDq7zGWnvEZfcM5Xtb-22" edge="1">
          <mxGeometry x="0.0757" y="-10" width="160" relative="1" as="geometry">
            <mxPoint x="230" y="305" as="sourcePoint" />
            <mxPoint x="466" y="231" as="targetPoint" />
            <mxPoint as="offset" />
          </mxGeometry>
        </mxCell>
        <mxCell id="CVkDq7zGWnvEZfcM5Xtb-63" value="&amp;lt;&amp;lt;include&amp;gt;&amp;gt;" style="edgeStyle=none;html=1;endArrow=open;verticalAlign=bottom;dashed=1;labelBackgroundColor=none;rounded=0;entryX=0.36;entryY=0.075;entryDx=0;entryDy=0;entryPerimeter=0;exitX=1;exitY=0.5;exitDx=0;exitDy=0;" parent="1" source="CVkDq7zGWnvEZfcM5Xtb-15" target="CVkDq7zGWnvEZfcM5Xtb-22" edge="1">
          <mxGeometry x="0.0027" width="160" relative="1" as="geometry">
            <mxPoint x="296" y="204" as="sourcePoint" />
            <mxPoint x="532" y="130" as="targetPoint" />
            <mxPoint as="offset" />
          </mxGeometry>
        </mxCell>
        <mxCell id="CVkDq7zGWnvEZfcM5Xtb-64" value="&amp;lt;&amp;lt;include&amp;gt;&amp;gt;" style="edgeStyle=none;html=1;endArrow=open;verticalAlign=bottom;dashed=1;labelBackgroundColor=none;rounded=0;entryX=0;entryY=0;entryDx=0;entryDy=0;exitX=1;exitY=1;exitDx=0;exitDy=0;" parent="1" source="CVkDq7zGWnvEZfcM5Xtb-24" target="CVkDq7zGWnvEZfcM5Xtb-22" edge="1">
          <mxGeometry x="0.0027" width="160" relative="1" as="geometry">
            <mxPoint x="306" y="214" as="sourcePoint" />
            <mxPoint x="542" y="140" as="targetPoint" />
            <mxPoint as="offset" />
          </mxGeometry>
        </mxCell>
        <mxCell id="CVkDq7zGWnvEZfcM5Xtb-65" value="&amp;lt;&amp;lt;include&amp;gt;&amp;gt;" style="edgeStyle=none;html=1;endArrow=open;verticalAlign=bottom;dashed=1;labelBackgroundColor=none;rounded=0;entryX=0.06;entryY=0.325;entryDx=0;entryDy=0;entryPerimeter=0;exitX=1;exitY=1;exitDx=0;exitDy=0;" parent="1" source="CVkDq7zGWnvEZfcM5Xtb-25" target="CVkDq7zGWnvEZfcM5Xtb-22" edge="1">
          <mxGeometry x="0.0027" width="160" relative="1" as="geometry">
            <mxPoint x="316" y="224" as="sourcePoint" />
            <mxPoint x="552" y="150" as="targetPoint" />
            <mxPoint as="offset" />
          </mxGeometry>
        </mxCell>
      </root>
    </mxGraphModel>
  </diagram>
  <diagram id="KPzaeShwxwW0v4e-J77a" name="Page-2">
    <mxGraphModel dx="2074" dy="788" grid="0" gridSize="10" guides="1" tooltips="1" connect="1" arrows="1" fold="1" page="0" pageScale="1" pageWidth="827" pageHeight="1169" math="0" shadow="0">
      <root>
        <mxCell id="0" />
        <mxCell id="1" parent="0" />
        <mxCell id="8w7pqP5LyqpkUnZaQlxS-23" value="" style="whiteSpace=wrap;html=1;aspect=fixed;" vertex="1" parent="1">
          <mxGeometry x="-158" y="391" width="386" height="386" as="geometry" />
        </mxCell>
        <mxCell id="8w7pqP5LyqpkUnZaQlxS-1" value="Truck" style="swimlane;fontStyle=1;align=center;verticalAlign=top;childLayout=stackLayout;horizontal=1;startSize=26;horizontalStack=0;resizeParent=1;resizeParentMax=0;resizeLast=0;collapsible=1;marginBottom=0;whiteSpace=wrap;html=1;" vertex="1" parent="1">
          <mxGeometry x="-141" y="647" width="160" height="97" as="geometry" />
        </mxCell>
        <mxCell id="8w7pqP5LyqpkUnZaQlxS-2" value="&lt;div&gt;+ maxLoad: integer&lt;/div&gt;" style="text;strokeColor=none;fillColor=none;align=left;verticalAlign=top;spacingLeft=4;spacingRight=4;overflow=hidden;rotatable=0;points=[[0,0.5],[1,0.5]];portConstraint=eastwest;whiteSpace=wrap;html=1;" vertex="1" parent="8w7pqP5LyqpkUnZaQlxS-1">
          <mxGeometry y="26" width="160" height="37" as="geometry" />
        </mxCell>
        <mxCell id="8w7pqP5LyqpkUnZaQlxS-3" value="" style="line;strokeWidth=1;fillColor=none;align=left;verticalAlign=middle;spacingTop=-1;spacingLeft=3;spacingRight=3;rotatable=0;labelPosition=right;points=[];portConstraint=eastwest;strokeColor=inherit;" vertex="1" parent="8w7pqP5LyqpkUnZaQlxS-1">
          <mxGeometry y="63" width="160" height="8" as="geometry" />
        </mxCell>
        <mxCell id="8w7pqP5LyqpkUnZaQlxS-4" value="GetMaxLoad():void" style="text;strokeColor=none;fillColor=none;align=left;verticalAlign=top;spacingLeft=4;spacingRight=4;overflow=hidden;rotatable=0;points=[[0,0.5],[1,0.5]];portConstraint=eastwest;whiteSpace=wrap;html=1;" vertex="1" parent="8w7pqP5LyqpkUnZaQlxS-1">
          <mxGeometry y="71" width="160" height="26" as="geometry" />
        </mxCell>
        <mxCell id="8w7pqP5LyqpkUnZaQlxS-5" value="Car" style="swimlane;fontStyle=1;align=center;verticalAlign=top;childLayout=stackLayout;horizontal=1;startSize=26;horizontalStack=0;resizeParent=1;resizeParentMax=0;resizeLast=0;collapsible=1;marginBottom=0;whiteSpace=wrap;html=1;" vertex="1" parent="1">
          <mxGeometry x="51" y="647" width="160" height="97" as="geometry" />
        </mxCell>
        <mxCell id="8w7pqP5LyqpkUnZaQlxS-6" value="&lt;div&gt;+ topSpeed: integer&lt;/div&gt;" style="text;strokeColor=none;fillColor=none;align=left;verticalAlign=top;spacingLeft=4;spacingRight=4;overflow=hidden;rotatable=0;points=[[0,0.5],[1,0.5]];portConstraint=eastwest;whiteSpace=wrap;html=1;" vertex="1" parent="8w7pqP5LyqpkUnZaQlxS-5">
          <mxGeometry y="26" width="160" height="37" as="geometry" />
        </mxCell>
        <mxCell id="8w7pqP5LyqpkUnZaQlxS-7" value="" style="line;strokeWidth=1;fillColor=none;align=left;verticalAlign=middle;spacingTop=-1;spacingLeft=3;spacingRight=3;rotatable=0;labelPosition=right;points=[];portConstraint=eastwest;strokeColor=inherit;" vertex="1" parent="8w7pqP5LyqpkUnZaQlxS-5">
          <mxGeometry y="63" width="160" height="8" as="geometry" />
        </mxCell>
        <mxCell id="8w7pqP5LyqpkUnZaQlxS-8" value="GetTopSpeed():void" style="text;strokeColor=none;fillColor=none;align=left;verticalAlign=top;spacingLeft=4;spacingRight=4;overflow=hidden;rotatable=0;points=[[0,0.5],[1,0.5]];portConstraint=eastwest;whiteSpace=wrap;html=1;" vertex="1" parent="8w7pqP5LyqpkUnZaQlxS-5">
          <mxGeometry y="71" width="160" height="26" as="geometry" />
        </mxCell>
        <mxCell id="8w7pqP5LyqpkUnZaQlxS-9" value="Vehicle" style="swimlane;fontStyle=1;align=center;verticalAlign=top;childLayout=stackLayout;horizontal=1;startSize=26;horizontalStack=0;resizeParent=1;resizeParentMax=0;resizeLast=0;collapsible=1;marginBottom=0;whiteSpace=wrap;html=1;" vertex="1" parent="1">
          <mxGeometry x="-58" y="407" width="160" height="148" as="geometry" />
        </mxCell>
        <mxCell id="8w7pqP5LyqpkUnZaQlxS-10" value="+ color: string&lt;div&gt;+ doors: integer&lt;/div&gt;&lt;div&gt;+ wheels: integer&lt;/div&gt;" style="text;strokeColor=none;fillColor=none;align=left;verticalAlign=top;spacingLeft=4;spacingRight=4;overflow=hidden;rotatable=0;points=[[0,0.5],[1,0.5]];portConstraint=eastwest;whiteSpace=wrap;html=1;" vertex="1" parent="8w7pqP5LyqpkUnZaQlxS-9">
          <mxGeometry y="26" width="160" height="72" as="geometry" />
        </mxCell>
        <mxCell id="8w7pqP5LyqpkUnZaQlxS-11" value="" style="line;strokeWidth=1;fillColor=none;align=left;verticalAlign=middle;spacingTop=-1;spacingLeft=3;spacingRight=3;rotatable=0;labelPosition=right;points=[];portConstraint=eastwest;strokeColor=inherit;" vertex="1" parent="8w7pqP5LyqpkUnZaQlxS-9">
          <mxGeometry y="98" width="160" height="8" as="geometry" />
        </mxCell>
        <mxCell id="8w7pqP5LyqpkUnZaQlxS-12" value="GetVehicle():void" style="text;strokeColor=none;fillColor=none;align=left;verticalAlign=top;spacingLeft=4;spacingRight=4;overflow=hidden;rotatable=0;points=[[0,0.5],[1,0.5]];portConstraint=eastwest;whiteSpace=wrap;html=1;" vertex="1" parent="8w7pqP5LyqpkUnZaQlxS-9">
          <mxGeometry y="106" width="160" height="42" as="geometry" />
        </mxCell>
        <mxCell id="8w7pqP5LyqpkUnZaQlxS-18" value="Extends" style="endArrow=block;endSize=16;endFill=0;html=1;rounded=0;fontSize=12;curved=1;exitX=0.5;exitY=0;exitDx=0;exitDy=0;entryX=0.194;entryY=1.119;entryDx=0;entryDy=0;entryPerimeter=0;" edge="1" parent="1" source="8w7pqP5LyqpkUnZaQlxS-1" target="8w7pqP5LyqpkUnZaQlxS-12">
          <mxGeometry width="160" relative="1" as="geometry">
            <mxPoint x="-132" y="592" as="sourcePoint" />
            <mxPoint x="24" y="556" as="targetPoint" />
          </mxGeometry>
        </mxCell>
        <mxCell id="8w7pqP5LyqpkUnZaQlxS-21" value="Extends" style="endArrow=block;endSize=16;endFill=0;html=1;rounded=0;fontSize=12;curved=1;entryX=0.763;entryY=1;entryDx=0;entryDy=0;entryPerimeter=0;exitX=0.5;exitY=0;exitDx=0;exitDy=0;" edge="1" parent="1" source="8w7pqP5LyqpkUnZaQlxS-5" target="8w7pqP5LyqpkUnZaQlxS-12">
          <mxGeometry width="160" relative="1" as="geometry">
            <mxPoint x="-104" y="657" as="sourcePoint" />
            <mxPoint x="34" y="566" as="targetPoint" />
          </mxGeometry>
        </mxCell>
        <mxCell id="8w7pqP5LyqpkUnZaQlxS-25" value="Vehicle factory pattern" style="swimlane;fontStyle=1;align=center;verticalAlign=top;childLayout=stackLayout;horizontal=1;startSize=26;horizontalStack=0;resizeParent=1;resizeParentMax=0;resizeLast=0;collapsible=1;marginBottom=0;whiteSpace=wrap;html=1;" vertex="1" parent="1">
          <mxGeometry x="293" y="391" width="160" height="183" as="geometry" />
        </mxCell>
        <mxCell id="8w7pqP5LyqpkUnZaQlxS-26" value="Type" style="text;strokeColor=none;fillColor=none;align=left;verticalAlign=top;spacingLeft=4;spacingRight=4;overflow=hidden;rotatable=0;points=[[0,0.5],[1,0.5]];portConstraint=eastwest;whiteSpace=wrap;html=1;" vertex="1" parent="8w7pqP5LyqpkUnZaQlxS-25">
          <mxGeometry y="26" width="160" height="72" as="geometry" />
        </mxCell>
        <mxCell id="8w7pqP5LyqpkUnZaQlxS-27" value="" style="line;strokeWidth=1;fillColor=none;align=left;verticalAlign=middle;spacingTop=-1;spacingLeft=3;spacingRight=3;rotatable=0;labelPosition=right;points=[];portConstraint=eastwest;strokeColor=inherit;" vertex="1" parent="8w7pqP5LyqpkUnZaQlxS-25">
          <mxGeometry y="98" width="160" height="8" as="geometry" />
        </mxCell>
        <mxCell id="8w7pqP5LyqpkUnZaQlxS-28" value="createVehicle(type)" style="text;strokeColor=none;fillColor=none;align=left;verticalAlign=top;spacingLeft=4;spacingRight=4;overflow=hidden;rotatable=0;points=[[0,0.5],[1,0.5]];portConstraint=eastwest;whiteSpace=wrap;html=1;" vertex="1" parent="8w7pqP5LyqpkUnZaQlxS-25">
          <mxGeometry y="106" width="160" height="77" as="geometry" />
        </mxCell>
        <mxCell id="8w7pqP5LyqpkUnZaQlxS-29" value="Vehicle factory&amp;nbsp;" style="swimlane;fontStyle=1;align=center;verticalAlign=top;childLayout=stackLayout;horizontal=1;startSize=26;horizontalStack=0;resizeParent=1;resizeParentMax=0;resizeLast=0;collapsible=1;marginBottom=0;whiteSpace=wrap;html=1;" vertex="1" parent="1">
          <mxGeometry x="293" y="623" width="160" height="111" as="geometry" />
        </mxCell>
        <mxCell id="8w7pqP5LyqpkUnZaQlxS-31" value="" style="line;strokeWidth=1;fillColor=none;align=left;verticalAlign=middle;spacingTop=-1;spacingLeft=3;spacingRight=3;rotatable=0;labelPosition=right;points=[];portConstraint=eastwest;strokeColor=inherit;" vertex="1" parent="8w7pqP5LyqpkUnZaQlxS-29">
          <mxGeometry y="26" width="160" height="8" as="geometry" />
        </mxCell>
        <mxCell id="8w7pqP5LyqpkUnZaQlxS-32" value="createVehicle(type)" style="text;strokeColor=none;fillColor=none;align=left;verticalAlign=top;spacingLeft=4;spacingRight=4;overflow=hidden;rotatable=0;points=[[0,0.5],[1,0.5]];portConstraint=eastwest;whiteSpace=wrap;html=1;" vertex="1" parent="8w7pqP5LyqpkUnZaQlxS-29">
          <mxGeometry y="34" width="160" height="77" as="geometry" />
        </mxCell>
        <mxCell id="8w7pqP5LyqpkUnZaQlxS-33" value="" style="endArrow=classic;html=1;rounded=0;fontSize=12;startSize=8;endSize=8;curved=1;exitX=0.006;exitY=0.162;exitDx=0;exitDy=0;exitPerimeter=0;entryX=0.995;entryY=0.642;entryDx=0;entryDy=0;entryPerimeter=0;" edge="1" parent="1" source="8w7pqP5LyqpkUnZaQlxS-29" target="8w7pqP5LyqpkUnZaQlxS-23">
          <mxGeometry width="50" height="50" relative="1" as="geometry">
            <mxPoint x="176" y="680" as="sourcePoint" />
            <mxPoint x="226" y="630" as="targetPoint" />
          </mxGeometry>
        </mxCell>
        <mxCell id="8w7pqP5LyqpkUnZaQlxS-34" value="" style="endArrow=classic;html=1;rounded=0;fontSize=12;startSize=8;endSize=8;curved=1;exitX=0.506;exitY=1.039;exitDx=0;exitDy=0;exitPerimeter=0;entryX=0.5;entryY=0;entryDx=0;entryDy=0;" edge="1" parent="1" source="8w7pqP5LyqpkUnZaQlxS-28" target="8w7pqP5LyqpkUnZaQlxS-29">
          <mxGeometry width="50" height="50" relative="1" as="geometry">
            <mxPoint x="304" y="651" as="sourcePoint" />
            <mxPoint x="236" y="649" as="targetPoint" />
          </mxGeometry>
        </mxCell>
      </root>
    </mxGraphModel>
  </diagram>
</mxfile>
